<svg width="96" height="96" xmlns="http://www.w3.org/2000/svg" xmlns:xlink="http://www.w3.org/1999/xlink" overflow="hidden"><defs><clipPath id="clip0"><rect x="254" y="144" width="96" height="96"/></clipPath></defs><g clip-path="url(#clip0)" transform="translate(-254 -144)"><path d="M325.005 222 266.005 222C263.796 222 262.005 220.209 262.005 218 262.005 215.791 263.796 214 266.005 214L274.005 214 274.005 172 323.405 172 325.405 170 274.005 170 274.005 160 266.005 160C262.693 160.004 260.009 162.688 260.005 166L260.005 218C260.009 221.312 262.693 223.996 266.005 224L327.005 224 327.005 189.482 325.005 191.482ZM262.005 166C262.005 163.791 263.796 162 266.005 162L272.005 162 272.005 212 266.005 212C264.528 211.999 263.103 212.545 262.005 213.532Z" stroke="#211893" stroke-width="1.33333"/><path d="M347.414 162.02 343.914 158.52C343.154 157.744 341.909 157.731 341.132 158.491 341.122 158.5 341.113 158.51 341.103 158.52L315.572 184.1 315.436 184.418 313.261 191.139 299.838 178.348 280.614 196.578 285.044 201.008 285.044 214 298.044 214 298.044 202.542 301.544 202.542 301.544 214 314.544 214 314.544 198.942 299.794 184.93 285.435 198.571 283.48 196.616 299.834 181.107 312.7 193.367 321.515 190.497 321.925 190.323 347.365 164.782C348.14 164.101 348.216 162.921 347.535 162.146 347.497 162.102 347.456 162.06 347.414 162.02ZM287.044 199.8 299.794 187.688 312.544 199.8 312.544 212 303.544 212 303.544 200.542 296.044 200.542 296.044 212 287.044 212ZM321.2 188.221 320.848 188.573 316.671 189.951 315.992 189.272 317.363 185.138 317.772 184.728C318.175 184.483 318.637 184.352 319.109 184.35 319.779 184.35 320.42 184.619 320.89 185.096 321.742 185.922 321.873 187.243 321.2 188.221ZM341.142 168.275 323.517 185.9C323.134 184.168 321.774 182.82 320.039 182.452L337.683 164.766 338.017 164.431 341.489 167.9ZM342.866 166.452 339.431 163.017 342.508 159.942 345.941 163.377Z" stroke="#211893" stroke-width="1.33333"/></g></svg>