<svg width="96" height="96" xmlns="http://www.w3.org/2000/svg" xmlns:xlink="http://www.w3.org/1999/xlink" overflow="hidden"><defs><clipPath id="clip0"><rect x="592" y="312" width="96" height="96"/></clipPath></defs><g clip-path="url(#clip0)" transform="translate(-592 -312)"><path d="M608 349 623 349 623 356 630 349 636 349 640 356 644 349 650 349 657 356 657 349 673 349C675.209 349 677 347.209 677 345L677 324C677 321.791 675.209 320 673 320L608 320C605.791 320 604 321.791 604 324L604 345C604 347.209 605.791 349 608 349ZM606 324C606 322.895 606.895 322 608 322L673 322C674.105 322 675 322.895 675 324L675 345C675 346.105 674.105 347 673 347L655 347 655 351.172 651.414 347.586 650.828 347 642.839 347 642.264 348.008 640 351.969 637.737 348.008 637.161 347 629.172 347 628.586 347.586 625 351.172 625 347 608 347C606.895 347 606 346.105 606 345Z" stroke="#292EB2" stroke-width="1.33333"/><path d="M620 329 667 329 667 331 620 331Z" stroke="#292EB2" stroke-width="1.33333"/><path d="M614 334 667 334 667 336 614 336Z" stroke="#292EB2" stroke-width="1.33333"/><path d="M630 339 667 339 667 341 630 341Z" stroke="#292EB2" stroke-width="1.33333"/><path d="M654.262 368.74C654.263 373.014 657.728 376.477 662.002 376.476 666.276 376.475 669.739 373.01 669.738 368.736 669.737 364.463 666.273 361 662 361 657.726 361.001 654.261 364.466 654.262 368.74ZM667.738 368.74C667.737 371.909 665.167 374.477 661.998 374.476 658.829 374.475 656.261 371.905 656.262 368.736 656.263 365.568 658.832 363 662 363 665.168 363.004 667.735 365.572 667.738 368.74Z" stroke="#292EB2" stroke-width="1.33333"/><path d="M612.262 368.945C612.263 373.219 615.728 376.682 620.002 376.681 624.276 376.68 627.739 373.215 627.738 368.941 627.737 364.668 624.273 361.205 620 361.205 615.726 361.206 612.261 364.671 612.262 368.945ZM625.738 368.945C625.737 372.114 623.167 374.682 619.998 374.681 616.829 374.68 614.261 372.11 614.262 368.941 614.263 365.773 616.832 363.205 620 363.205 623.168 363.209 625.735 365.777 625.738 368.945Z" stroke="#292EB2" stroke-width="1.33333"/><path d="M676.133 382.619C673.86 380.866 671.255 379.591 668.475 378.873 666.377 378.228 664.195 377.897 662 377.892 659.812 377.927 657.639 378.256 655.538 378.869 652.788 379.668 650.196 380.934 647.875 382.612 647.724 382.734 647.58 382.864 647.443 383.002 647.643 383.058 647.843 383.102 648.049 383.162 648.657 383.335 649.239 383.527 649.81 383.728 651.741 382.445 653.853 381.458 656.076 380.8 658.002 380.238 659.994 379.935 662 379.9 664.005 379.906 665.997 380.209 667.913 380.8 670.438 381.446 672.806 382.596 674.875 384.182 675.562 384.714 675.975 385.525 676 386.394L676 392.794 678 392.794 678 386.394C677.976 384.919 677.291 383.533 676.133 382.619Z" stroke="#292EB2" stroke-width="1.33333"/><path d="M632.058 383.8C632.701 383.558 633.346 383.339 633.989 383.156 634.126 383.119 634.253 383.093 634.389 383.056 634.305 382.979 634.224 382.899 634.134 382.828 631.861 381.074 629.256 379.799 626.476 379.08 624.378 378.436 622.195 378.105 620 378.1 617.812 378.136 615.639 378.464 613.538 379.076 610.788 379.875 608.195 381.141 605.875 382.82 604.714 383.734 604.025 385.122 604 386.6L604 393 606 393 606 386.6C606.019 385.744 606.417 384.94 607.088 384.408 609.209 382.888 611.572 381.735 614.076 381 616.002 380.438 617.994 380.135 620 380.1 622.005 380.107 623.997 380.41 625.913 381 628.103 381.586 630.179 382.532 632.058 383.8Z" stroke="#292EB2" stroke-width="1.33333"/><path d="M655.133 388.825C652.86 387.071 650.255 385.796 647.475 385.077 645.377 384.434 643.195 384.104 641 384.1 638.812 384.136 636.639 384.464 634.538 385.076 631.788 385.875 629.195 387.141 626.875 388.82 625.714 389.734 625.025 391.122 625 392.6L625 399 627 399 627 392.6C627.019 391.744 627.417 390.94 628.088 390.408 630.209 388.888 632.572 387.735 635.076 387 637.002 386.438 638.994 386.135 641 386.1 643.005 386.107 644.997 386.41 646.913 387 649.438 387.646 651.806 388.797 653.875 390.382 654.564 390.915 654.977 391.729 655 392.6L655 399 657 399 657 392.6C656.977 391.125 656.291 389.739 655.133 388.825Z" stroke="#292EB2" stroke-width="1.33333"/><path d="M633.262 374.945C633.263 379.219 636.728 382.682 641.002 382.681 645.276 382.68 648.739 379.215 648.738 374.941 648.737 370.668 645.273 367.205 641 367.205 636.726 367.206 633.261 370.671 633.262 374.945ZM646.738 374.945C646.737 378.114 644.167 380.682 640.998 380.681 637.829 380.68 635.261 378.11 635.262 374.941 635.263 371.773 637.832 369.205 641 369.205 644.168 369.209 646.735 371.777 646.738 374.945Z" stroke="#292EB2" stroke-width="1.33333"/></g></svg>