<svg width="96" height="96" xmlns="http://www.w3.org/2000/svg" xmlns:xlink="http://www.w3.org/1999/xlink" overflow="hidden"><defs><clipPath id="clip0"><rect x="834" y="144" width="96" height="96"/></clipPath></defs><g clip-path="url(#clip0)" transform="translate(-834 -144)"><path d="M881.979 154C861.004 154 844 171.004 844 191.979 844 212.954 861.004 229.958 881.979 229.958 902.954 229.958 919.958 212.954 919.958 191.979 919.967 171.013 902.979 154.009 882.013 154 882.002 154 881.99 154 881.979 154ZM881.979 227.958C862.108 227.958 846 211.85 846 191.979 846 172.108 862.108 156 881.979 156 901.85 156 917.958 172.108 917.958 191.979 917.935 211.84 901.84 227.935 881.979 227.958Z" stroke="#211893" stroke-width="2"/><path d="M883 179 875 179 875 181 881 181 881 211 874 211 874 213 890 213 890 211 883 211 883 179Z" stroke="#211893" stroke-width="2"/><path d="M883.064 170.5C883.064 171.743 882.057 172.75 880.814 172.75 879.571 172.75 878.564 171.743 878.564 170.5 878.564 169.257 879.571 168.25 880.814 168.25 882.057 168.25 883.064 169.257 883.064 170.5Z" stroke="#211893" stroke-width="2"/></g></svg>